<svg class="icon -arrow" viewBox="0 0 150 35">
  <path d="m 20.312688,13.821358 c -2.184565,-1.15556 -4.540189,-2.152539 -6.779095,-4.0529278 1.93601,-0.999617 3.920124,-1.089586 5.128226,-0.301097 3.459483,2.3592338 7.726167,3.0158878 11.01459,5.5336968 0.323408,0.1773 0.475755,0.513184 0.707395,0.934598 -2.290608,1.64643 -5.213757,0.380388 -7.339541,2.033056 -1.287395,-0.874017 -2.551638,-0.179099 -3.638584,0.192373 -2.509769,0.895428 -4.725523,0.563983 -6.897611,-0.921223 -2.495496,-1.662505 -4.9972314,-3.160187 -7.6637894,-4.664108 -1.128809,-0.702958 -2.349387,-1.161802 -3.490672,-1.535114 -0.48823198,-0.183537 -1.06823098,-0.122958 -1.25800598,0.530099 -0.183536,0.488234 -0.122957,1.068234 0.359037,1.416593 0.72610798,0.440128 1.61703998,0.886493 2.42867898,1.247329 3.087972,1.272279 5.9924081,3.032791 8.9886114,4.549188 1.537748,0.800962 1.836205,1.637552 0.711834,2.998002 -2.163212,2.641606 -4.1616014,5.28945 -6.1599904,7.937295 -1.65003,2.16585 -1.297231,3.747264 1.498522,4.018129 2.8750454,0.356396 6.0797374,0.725269 8.9066794,0.172022 7.650474,-1.526113 15.226093,-1.074349 22.728658,-0.872938 1.813053,0.06861 2.564113,-0.150544 3.200254,-1.694533 1.168035,-2.514211 2.976649,-4.509002 5.187966,-6.240962 3.579801,-3.000642 7.629121,-5.323278 11.050338,-8.494981 0.427651,-0.396463 0.849066,-0.628103 1.422828,-0.52386 6.586681,0.414338 13.437991,-1.802256 19.826861,1.658187 0.323408,0.1773 0.738585,0.110482 1.147523,0.208489 3.686684,0.717232 7.51504,-0.128236 11.164297,1.577934 0.811641,0.360835 1.984115,-0.08997 2.424243,-0.816077 1.130608,-1.525272 2.534723,-1.554662 4.182958,-1.492283 6.507381,0.328805 12.910531,1.231374 19.399211,2.054649 0.73858,0.110482 1.90482,-0.175507 2.10526,1.07003 -1.11188,1.030804 -2.21754,1.896783 -3.16462,2.933824 -1.20366,1.274921 -2.73073,2.372541 -3.53794,4.075111 -0.36083,0.81164 -0.66109,2.203277 0.74927,2.009065 2.64964,-0.229834 5.07832,1.017488 7.56938,0.616588 8.46212,-1.165278 16.92422,-2.330554 25.38634,-3.495831 0.83658,-0.298456 2.00906,-0.749261 2.3031,-1.976077 0.20847,-1.147523 -0.92657,-1.685656 -1.72573,-2.376138 -0.15859,-0.17106 -0.40271,-0.262829 -0.64683,-0.354596 -5.82758,-3.026554 -11.64892,-6.217931 -17.56204,-9.165191 -3.3989,-1.77923 -7.0544,-3.3205838 -10.62437,-4.9412256 -0.89093,-0.446365 -1.87987,-0.483792 -2.49106,0.400902 -0.52566,0.8054018 -0.47755,1.7150508 -0.0142,2.5578816 0.31093,0.506948 0.87221,0.940839 1.26244,1.533317 1.25621,1.698133 2.5917,3.481795 4.15884,5.686873 -1.89234,-0.154147 -3.12539,-0.283343 -4.35845,-0.412538 -4.27292,-0.491829 -8.53337,-1.313306 -12.81877,-1.47549 -5.768801,-0.218324 -11.414649,-1.504881 -16.974966,-2.870728 -2.453631,-0.588036 -5.011507,-0.602311 -7.550668,-1.111057 -0.982701,-0.20225 -1.904822,0.175508 -2.351187,1.066432 -0.800963,1.53775 -2.034016,1.408553 -3.352601,1.358651 -4.694337,-0.260189 -9.401148,-0.190735 -14.028666,-0.03575 -0.909646,0.0481 -1.819291,0.09621 -2.624694,-0.429452 C 52.316898,9.9157422 46.35568,6.0588314 40.48623,1.9578081 39.278129,1.169322 38.380958,0.88777804 36.970606,1.081992 31.738136,1.9568491 26.718592,3.7475894 21.473646,4.9520934 15.978347,6.2296514 10.769029,8.6734452 4.9084556,8.6992372 c -0.329646,-0.01248 -0.744822,0.05433 -1.159998,0.121159 -0.500708,0.146111 -1.001414,0.292221 -0.947073,1.037047 0.133632,0.8303548 0.621865,1.0138918 1.366687,0.9595498 0.744823,-0.05434 1.495883,-0.273506 2.326236,-0.40714 2.7414111,-0.4739578 5.1157504,0.02855 7.2816014,1.678586 2.007265,1.478964 4.19183,2.634524 6.290863,3.869376 1.049517,0.617428 2.105272,1.070031 2.641607,2.163213 0.588036,-2.453632 -0.693121,-3.492473 -2.395692,-4.299673 z m 18.264162,1.516517 c -0.329646,-0.01248 -0.824115,-0.0312 -1.147524,-0.208489 -4.515237,-2.811827 -9.036714,-5.4588408 -13.679347,-9.2658486 5.342952,-1.613442 10.325068,-2.415244 15.1486,-3.3881082 0.500707,-0.146109 0.9827,0.2022511 1.3854,0.4650801 4.569581,3.5566501 9.22469,7.0340119 13.79427,10.5906717 -0.09177,0.244115 -0.104245,0.57376 -0.110483,0.738583 -5.134464,0.465918 -10.26269,0.767014 -15.390916,1.068111 z m -10.384808,8.355109 c -1.631316,1.671381 -3.110285,3.678648 -5.052533,4.843084 -1.520834,0.932798 0.382188,2.985527 -1.522633,3.161027 -2.570351,0.315371 -5.061409,0.716272 -7.838448,-0.04906 1.00945,-2.685271 2.567711,-4.607006 4.766551,-6.00932 1.691895,-1.091384 3.060381,-2.360064 4.514398,-3.708039 0.855305,-0.792925 1.130609,-1.525271 -0.517621,-1.58765 -0.329646,-0.01248 -0.127396,-0.995176 0.452604,-1.055755 3.235881,-0.455242 6.490475,-1.404954 10.525519,-1.169715 -1.748035,2.574789 -3.696522,3.904049 -5.327837,5.575431 z m 23.67753,-4.138208 c -3.994978,3.06746 -8.307126,5.792796 -10.551431,10.577101 -0.531896,0.970225 -1.124369,1.36045 -2.113309,1.323023 -1.318584,-0.0499 -2.814466,0.223604 -4.114336,-0.32077 0.01248,-0.329645 -0.139867,-0.665529 -0.05434,-0.744822 4.533112,-4.202505 9.145516,-8.319483 13.67863,-12.521988 1.539547,-1.427265 2.614015,-1.469131 5.806231,-0.770613 -0.617426,1.049516 -1.716847,1.750675 -2.651444,2.458069 z m -12.486481,2.828622 c -1.166236,0.28598 -2.119547,1.487844 -2.657682,2.622892 -2.158772,4.705012 -4.687258,6.094852 -10.700178,5.784758 3.158387,-2.769001 6.066421,-5.464949 9.126804,-7.825012 1.191188,-0.945273 2.620253,-1.633955 3.256394,-3.177941 0.642377,-1.708809 2.662118,-0.559486 3.529899,-1.682058 0.874017,-1.287394 0.629901,-1.379162 3.352601,-1.35865 0.164822,0.0062 0.244114,0.09177 0.732344,0.275304 -1.827326,2.48926 -3.642178,4.648873 -6.640182,5.360707 z m -27.905948,9.012481 c -0.538133,1.135048 -2.3199973,0.242316 -3.7303494,0.436528 0.306493,-1.556461 1.1680351,-2.51421 2.1151081,-3.55125 1.8816703,-1.744438 4.0012163,-3.232282 5.1692523,-5.746493 0.452604,-1.055754 0.776012,-0.878457 3.144112,-0.211131 -1.956523,3.722316 -5.248544,5.660966 -6.698123,9.072345 z M 127.9403,20.122903 c -1.23485,2.099032 -3.3838,2.182763 -4.01369,3.561927 -0.72791,1.788102 -1.73556,2.245144 -4.1099,1.742638 2.71827,-2.042895 4.6124,-4.116977 8.12359,-5.304565 z m 7.99524,2.448353 c 1.91729,-0.505146 3.70541,0.222762 5.4935,0.95067 -2.0946,0.828554 -3.60116,-0.796524 -5.4935,-0.95067 z m -10.64128,-6.674972 c 0.0731,0.250355 -0.10425,0.573762 -0.42766,0.396463 -0.81787,-0.196013 -1.03704,-0.947072 -1.90925,-1.887907 1.56269,0.141672 2.03845,0.654854 2.33691,1.491444 z m -88.575927,2.754964 c -0.122958,1.068231 -0.880256,1.452218 -2.138261,1.982315 0.78225,-1.04328 1.063792,-1.94045 2.138261,-1.982315 z" />
  <path d="m 41.976714,8.3689924 c 2.148937,-0.08373 2.977491,2.0108696 4.686298,2.6532506 -2.148935,0.08373 -3.423855,-1.1199368 -4.686298,-2.6532506 z" />
  <path d="m 38.14212,9.3792842 c 2.063407,-0.0044 3.265272,0.9488748 4.302312,1.8959508 -1.568937,0.02316 -2.868808,-0.521221 -4.302312,-1.8959508 z" />
</svg>
