<svg version="1" xmlns="http://www.w3.org/2000/svg" width="800" height="800" viewBox="0 0 600.000000 600.000000"><path d="M554.6 18c-16.3 16.3-17.9 17.6-41 33.2-13.3 8.9-28.8 19.4-34.6 23.3-54.5 37-87.9 59.5-88.5 59.5-.3 0-.5-3-.5-6.7v-6.8l-2.3 2.5c-2.7 3.1-40.9 50.4-45.7 56.7-2.4 3.3-3.5 5.8-3.6 8.7-.5 8.1-1.5 24.2-1.9 30.1-.2 3.3-.7 12.1-1 19.5-.6 12.9-1.2 19-1.9 19.8-.7.6-44.5-18.6-47.3-20.8-1.5-1.2-7.3-5.5-12.8-9.7-5.5-4.1-11.1-8.3-12.5-9.3-1.4-1.1-4.9-3.7-7.9-5.9l-5.4-4.1-3.6 2.2c-2 1.2-5.6 3.5-8 5-2.5 1.5-4.9 2.8-5.3 2.8-.6 0-20.2-10.6-27.2-14.8-.4-.2.3 1.5 1.7 3.9 7.9 14 12.7 23 12.7 23.9 0 .6-2.2 4.6-4.9 8.9l-5 7.9 5.5 7.3c3 4.1 6 8.1 6.7 8.9.6.9 5.2 6.9 10.2 13.5 8.1 11 9.7 13.8 18.3 33.8 5.1 12 9.1 22.1 8.9 22.3-.8.8-4.8 1.3-17.2 1.9-6.6.3-14.5.8-17.5 1-3 .2-11.3.6-18.5 1-16.6.8-20.5 1.2-21.9 2.4-.6.5-7.2 5.7-14.6 11.7-7.4 5.9-14 11.2-14.7 11.8-.6.6-8.2 6.7-16.8 13.6l-15.6 12.5 6.5.3c3.6.2 6.6.7 6.6 1.1 0 .5-.8 1.9-1.8 3.2-1 1.3-10.4 15-20.8 30.4-10.3 15.4-25.2 37.4-33 49-7.9 11.5-20.8 30.7-28.9 42.7-13.7 20.2-15.7 22.7-31.8 38.9C1.1 571.8.5 572.9 12 565.4c12.9-8.3 26-16.1 25.3-15.1-.5.9-25.3 33.7-30.7 40.6-1.2 1.5 4.5-2.4 26.7-18.1 7.5-5.3 13.7-9.5 13.7-9.1 0 .3-3.9 6.9-8.6 14.7-4.8 7.8-9.6 15.7-10.7 17.6-2.5 4.2-3.6 4.9 13-8.5.7-.6 1.9-1.5 2.7-2.2 5.2-4.3 22.3-18 23.2-18.6.6-.4-1.3 6.6-4.2 15.6-3 8.9-5.4 16.4-5.4 16.7 0 .3 8.3-7.8 18.5-18 21-21 19-20.8 15.9-1.6-.7 4.9-1.2 9.1-1.1 9.2.3.3 2.6-1.7 14.2-12.4 2.8-2.5 6.2-5.7 7.7-7.1l2.8-2.5 2.3 2.2c2.7 2.5 4 2.7 5.9.9 3.9-3.7 14.8-11.7 16-11.7.7 0 1.9.9 2.6 2 .7 1.1 1.6 2 2.2 2 .5 0 7.6-4.4 15.7-9.8s27.5-18.3 43.1-28.6c15.5-10.3 28.2-18.9 28.2-19 0-.2-1.3-6.8-2.9-14.7-1.6-7.9-3.2-16-3.5-17.9-.4-1.9-1.7-8.7-3-15-1.3-6.3-2.3-11.6-2.1-11.8.1-.1 3.1 7.7 6.6 17.4 3.5 9.7 6.6 18 6.9 18.4.3.4 4.8 1.1 10 1.5 5.2.4 11.8.8 14.5 1 2.8.3 9.3.7 14.5 1 5.2.3 11.8.8 14.5 1 2.8.2 9.1.7 14.1 1l9.1.6 8.4-7.2c4.6-3.9 10.7-9.1 13.4-11.4 2.8-2.3 8.2-6.9 12-10.2l7-6 .3-14.4c.2-7.9.5-14.6.7-14.8.4-.3 18.5 11.6 24.7 16.3 1.7 1.2 1.6 1.7-.3 8.7-1.1 4.1-2.2 8.1-2.4 8.9-.2.8-1.1 4.1-1.9 7.2-3.2 11.5-13.6 50.5-14.1 52.7-.3.9-1.8 6.5-3.5 12.6-1.6 6-4.1 15.3-5.6 20.7l-2.5 9.6 3 10.3c1.7 5.6 3.2 10.3 3.3 10.5.2.1 3.7.9 7.8 1.7l7.5 1.6 3.3-3.7c1.8-2 4.3-5.2 5.5-6.9 1.2-1.8 2.7-3.5 3.4-3.7.7-.3 3.7 3.3 7 8.5l5.8 9 5.5-.6c3-.3 6.4-.7 7.5-1 1.1-.2 3.2-.4 4.6-.4 2.2-.1 2.9-1.1 5.5-7.1 1.6-3.8 3.3-7 3.7-7 .8 0 4.3 3.2 14.8 13.1l2.8 2.7 5.3-2.5c2.9-1.4 8.1-3.8 11.4-5.3 5.2-2.4 6.5-3.6 8.2-7.2 3.4-7.3 6.2-14 6.2-15 0-.5-6.1-14.5-13.6-31.1-16.1-35.6-16.7-37-15.7-36.4.4.2 10.3 5.9 21.9 12.5l21 12.1 7-2c7.8-2.3 7.9-2.4 15.6-10.5 4.8-5 5.9-7 7.6-13l2-7.1-12.3-21.4c-6.8-11.8-12.1-21.5-12-21.7.2-.2 2.7.8 5.7 2.1 2.9 1.3 14.5 6.6 25.8 11.7s23.8 10.8 27.8 12.6c4 1.9 7.5 3.4 7.8 3.4.3 0 4.8-1.9 10-4.2 9.4-4.1 9.5-4.2 12-9.7 1.4-3.1 3.7-7.9 5-10.7 1.3-2.8 2.4-5.7 2.4-6.5-.1-.8-3.7-5.2-8.1-9.8l-7.9-8.4 6.7-2.8c3.7-1.6 7-3.2 7.4-3.6.7-.8 1-2.2 2.4-14.3l.6-5.5-9-5.9c-5-3.2-9.1-6.1-9-6.5 0-.3 3.4-3.3 7.5-6.5 4.9-4 7.3-6.5 7-7.5-.3-.9-1-4.4-1.7-7.8l-1.1-6.2-8.2-2.5c-4.4-1.4-9.2-2.8-10.6-3.1-2.3-.6-8.1.8-39 9.1-5.2 1.4-11.7 3.2-14.5 3.9-2.7.7-12 3.2-20.5 5.5s-16.4 4.4-17.5 4.6c-1.1.3-8.3 2.2-16 4.3l-14 3.8-2.5-3.6c-5.7-7.8-15.1-22.3-14.8-22.6.2-.2 6.8-.5 14.7-.8 14.3-.4 14.4-.4 17-3.3 2.2-2.5 20.3-23.9 25.1-29.7.8-1.1 2.7-3.3 4.3-5 2.6-3.1 2.7-3.6 2.2-11-.3-4.2-.7-11.4-1-16-.3-4.5-.8-10.5-1-13.2-.2-2.8-.7-10.3-1.1-16.8-.3-6.5-.7-12.5-.9-13.5-.2-.9-.4-3.3-.4-5.3-.1-4.2 1.1-3.5-23.6-12.5-13-4.7-16.7-6.3-11-4.9 1.7.4 3.9.9 5 1.1 1.1.2 10.1 2 20 4 9.9 1.9 19.4 3.8 21 4 1.7.3 4.6.9 6.5 1.5 1.9.5 3.8.9 4.2.9.3 0 4.6-6 9.4-13.3 31.5-47.6 47.2-71.4 47.8-72.4.4-.7-.4-2.4-1.8-3.9l-2.4-2.7 7.3-9.2 7.4-9.3-2.5-2.3c-1.3-1.2-2.4-2.5-2.4-2.8 0-.3 2.3-3.1 5.1-6.1 6.4-6.9 12.7-13.8 15.3-16.8l2-2.3-2.9.5c-1.7.3-5.2.8-8 1.1-2.7.4-6.8 1-9 1.5s-4.7 1-5.5 1c-.8 0 6.8-8.3 17-18.5S599.2 57 598.9 57c-.3 0-7.8 2.4-16.7 5.4-8.9 3-16.2 5.3-16.2 5.1 0-.1 7.4-9.4 16.4-20.6 9.1-11.2 16.3-20.5 16.1-20.7-.2-.2-3.1 1.5-6.4 3.7-3.3 2.3-6.2 4.1-6.5 4.1-.5 0-7.3 4.2-16.5 10.1-6 3.9-6.7 3.6-3.1-1.4 15.7-21.5 26.6-37.4 25-36.1-.8.6-10 7.6-20.5 15.5-10.4 8-19.6 14.9-20.3 15.3-.8.5-.1-1.1 1.4-3.5s3.8-6.1 5.1-8.2c3.7-5.9 6.7-10.8 10.5-16.7 4.3-6.8 5-8 4.6-8-.2.1-7.9 7.7-17.2 17z"/></svg>